<svg width="26" height="26" viewBox="0 0 26 26" fill="none" xmlns="http://www.w3.org/2000/svg">
<path d="M4.3335 2.16675V7.58341H9.75016L4.3335 2.16675Z" fill="white"/>
<path d="M6.5 5.733C8.22467 4.18925 10.5029 3.25 13 3.25C18.3853 3.25 22.75 7.61475 22.75 13M19.5 20.267C17.7753 21.8108 15.4971 22.75 13 22.75C7.61475 22.75 3.25 18.3853 3.25 13" stroke="white" stroke-width="2" stroke-miterlimit="10"/>
<path d="M21.6667 23.8334V18.4167H16.25L21.6667 23.8334Z" fill="white"/>
<path d="M9.09814 16.8438L15.6025 8.18039L16.902 9.15605L10.3976 17.8194L9.09814 16.8438Z" fill="white"/>
<path d="M15.7082 14.0834C14.8112 14.0834 14.0832 14.8114 14.0832 15.7084C14.0832 16.6054 14.8112 17.3334 15.7082 17.3334C16.6052 17.3334 17.3332 16.6054 17.3332 15.7084C17.3332 14.8114 16.6052 14.0834 15.7082 14.0834ZM10.2915 8.66675C9.3945 8.66675 8.6665 9.39475 8.6665 10.2917C8.6665 11.1887 9.3945 11.9167 10.2915 11.9167C11.1885 11.9167 11.9165 11.1887 11.9165 10.2917C11.9165 9.39475 11.1885 8.66675 10.2915 8.66675Z" fill="white"/>
</svg>
