<svg width="24" height="24" viewBox="0 0 24 24" fill="none" xmlns="http://www.w3.org/2000/svg">
<path d="M6 1H8V5H6V1ZM16 1H18V5H16V1ZM16.5 24C14 24 12 22 12 19.5C12 17 14 15 16.5 15C19 15 21 17 21 19.5C21 22 19 24 16.5 24ZM16.5 17C15.1 17 14 18.1 14 19.5C14 20.9 15.1 22 16.5 22C17.9 22 19 20.9 19 19.5C19 18.1 17.9 17 16.5 17Z" fill="white"/>
<path d="M20.0002 20.9999V18.9999C21.1002 18.9999 22.0002 18.0999 22.0002 16.9999C22.0002 15.8999 21.1002 14.9999 20.0002 14.9999C19.2002 14.9999 18.4002 15.4999 18.1002 16.2999L16.2002 15.5999C16.8002 13.9999 18.3002 12.8999 20.0002 12.8999C22.2002 12.8999 24.0002 14.6999 24.0002 16.8999C24.0002 19.1999 22.2002 20.9999 20.0002 20.9999Z" fill="white"/>
<path opacity="0.3" d="M20 14C18.7 14 17.6 14.8 17.2 16L17.3 16.1C17 16 16.7 16 16.5 16C14.6 16 13 17.6 13 19.5C13 21.4 14.6 23 16.5 23C18.3 23 19.7 21.7 20 19.9V20C21.7 20 23 18.7 23 17C23 15.3 21.7 14 20 14Z" fill="white"/>
<path d="M10 19.5C10 19.3 10 19.2 10 19H5V9H19V11.1C19.3 11 19.7 11 20 11C20.3 11 20.7 11 21 11.1V5C21 3.9 20.1 3 19 3H5C3.9 3 3 3.9 3 5V19C3 20.1 3.9 21 5 21H10.2C10.1 20.5 10 20 10 19.5ZM5 5H19V7H5V5Z" fill="white"/>
<path opacity="0.3" d="M4 4H20V8H4V4Z" fill="white"/>
</svg>
